<?xml version="1.0" encoding="UTF-8"?>
<svg version="1.1" viewBox="0 0 2048 910" width="1024" height="455" xmlns="http://www.w3.org/2000/svg">
<path transform="translate(1527,39)" d="m0 0 6 4 28 24 11 9 15 13 13 11 14 12 11 9 15 13 14 12 11 9 15 13 11 9 15 13 11 9 10 9 11 9 14 12 13 11 14 12 39 33 14 12 11 9 15 13 26 22 14 12 8 7 1 1 1 71v40l-7-6-16-17-17-17-1 117h-11l-1-9v-121l-12-13-34-34v-2h-2v-2h-2l-5-6-2-1v188h-11l-1-201-22-22-7-8-29-29-1 260h-11l-1-273-7-8-31-31-7-8-9-9-1 329h-11l-1-1-1-342-11-11-7-8-39-39v-2h-2l1 2v400l-1 1h-11l-1-416-35-35 9 651v41h-46l-2-6-2-12v-6h-2l-2 4-7 8-9 7-10 5-11 3-7 1h-10l-14-2-12-4-11-6-12-11-8-11-8-16-5-18-2-13v-41l3-18 5-17 8-17 9-12 8-8 11-7 13-5 10-2h20l12 3 11 6 11 9 4 5 1-42 6-390 1-56 1-34-32 17-5 3-1 129h-6v-125l-23 12-10 6-1 107h-6l-1-103-28 15-1 1-1 87h-6v-83l-16 8-11 6-1 69h-6v-65l-24 13-1 52h-7l-1-47-28 15-9 5-5-1-3-2 1-3 16-10 20-13 25-16 20-13 25-16 20-13 17-11 22-14 20-13 17-11 25-16 15-10zm-73 589-10 4-8 7-7 14-4 15-2 21 1 22 3 14 5 12 8 9 8 4 12 2 12-1 12-5 10-9 2-3v-87l-7-9-10-7-10-3z" fill="#F59321"/>
<path transform="translate(905,520)" d="m0 0h95l26 2 18 4 16 6 14 9 11 11 6 10 5 16 1 8v15l-4 16-7 13-11 11-12 7-3 1 15 6 11 7 8 8 8 14 4 14 1 9v12l-3 17-5 13-7 11-10 10-11 7-11 5-17 5-13 2-13 1h-112zm54 42v71h50l15-4 9-6 6-7 3-7 1-5v-11l-3-12-6-8-5-4-8-4-15-3zm14 108-14 1v77l2 1 59-1 12-3 10-6 6-7 4-9 1-6v-12l-3-14-6-10-8-6-12-4-30-1z" fill="#F59321"/>
<path transform="translate(1652,586)" d="m0 0h19l13 3 11 6 10 8 8 10 4-21 1-2 8-1h23l16 1v198l-1 16-4 16-8 16-11 12-12 9-15 7-20 5-20 2h-10l-18-2-18-4-19-7-5-3 2-11 7-28 2-1 16 6 18 4 11 1h14l15-3 8-4 5-4 6-12 1-5v-25l-7 7-10 7-13 5-13 2h-9l-15-2-16-6-10-7-8-7-8-11-8-15-5-16-3-18v-39l3-19 5-17 8-16 7-10 9-10 14-9 15-5zm16 42-10 4-6 5-6 10-5 13-3 17v32l3 15 5 12 6 8 10 6 12 2 13-1 10-4 6-4 7-8v-89l-6-8-10-7-10-3z" fill="#F59321"/>
<path transform="translate(141,204)" d="m0 0h35l17 3 17 6 11 6 12 9 10 10 9 14 5 14 2 20-52 1-2-3-2-11-6-12-7-7-12-6-9-2h-23l-14 4-10 7-6 9-2 6v13l5 10 8 7 16 8 25 9 27 9 20 9 11 7 9 7 7 6 9 12 6 14 3 17v12l-3 16-5 12-9 12-10 9-13 8-15 6-17 4-19 2h-18l-22-3-18-5-14-6-16-10-12-11-8-11-5-10-4-16-1-15 13-1h39l2 1 2 15 4 10 8 9 16 8 9 2 9 1h15l15-3 10-5 3-3h2l2-4 4-9 1-10-2-11-5-8-9-8-14-7-38-13-16-6-13-6-17-9-9-7-9-8-9-14-4-12-1-5v-23l3-12 7-14 11-12 8-7 14-8 14-6 18-4z" fill="#474646"/>
<path transform="translate(1254,277)" d="m0 0h58l3 8 24 82 8 28 1 9h2l1-7 25-83 11-37h59l-12 35-17 48-19 54-17 48-16 45-8 16-7 11-11 12-10 6-11 4-15 2h-19l-5-2v-40l1-1 17-2 10-4 8-9 9-22-1-6-19-53-19-54-15-42-16-45z" fill="#464645"/>
<path transform="translate(1878,586)" d="m0 0h24l17 3 15 6 13 9 9 9 9 14 5 11 4 17 1 7v44h-120l4 16 7 14 8 8 10 5 9 2h21l16-3 16-6 8-4h3l13 29v5l-13 8-14 6-13 4-17 3-12 1h-11l-18-2-17-5-15-8-13-11-8-9-7-11-7-15-4-16-1-7v-38l4-20 5-14 8-15 9-11 9-9 11-7 13-6 12-3zm4 42-9 4-8 8-6 12-3 11-1 7h67v-14l-3-11-6-9-8-6-6-2z" fill="#F59321"/>
<path transform="translate(369,273)" d="m0 0h23l16 3 14 5 11 7 10 9 8 10 8 16 4 13 2 12 1 44-1 1h-120l4 16 6 12 9 10 10 5 8 2h24l15-3 15-6 8-4h3l14 31-2 4-14 8-14 6-15 4-12 2-11 1h-16l-20-3-16-6-11-6-11-9-10-11-8-13-5-11-4-14-2-12v-36l3-17 6-18 9-16 9-11 11-10 14-8 15-5zm3 42-10 5-8 9-5 10-3 12v6h66v-15l-3-10-6-9-8-6-6-2z" fill="#464645"/>
<path transform="translate(692,277)" d="m0 0h54l1 132 2 10 4 9 5 5 8 4 6 1h10l13-3 11-6 5-5 1-147h54l1 1v198l-1 1h-45l-2-6-4-21-7 9-10 10-12 7-14 4-8 1h-12l-16-3-10-4-10-7-9-9-7-12-5-15-3-20z" fill="#484746"/>
<path transform="translate(569,273)" d="m0 0h23l17 3 13 5 12 7 12 11 9 13 5 13 2 10 1 15-1 1h-49l-3-15-5-10-8-7-8-3h-18l-10 4-6 5-8 16-3 12-1 8v33l3 16 5 13 6 8 8 5 7 2h17l10-4 4-3h2l2-4 4-9 2-10 49 1v14l-5 16-7 11-10 11-10 7-14 7-14 4-14 2h-15l-16-2-16-5-15-8-12-11-7-8-8-13-6-15-4-17-1-7v-36l3-17 6-18 6-11 8-11 12-12 13-8 12-5 13-3z" fill="#474645"/>
<path transform="translate(1204,194)" d="m0 0h2v83h33v37l-33 1 1 110 4 8 4 3 3 1h14l6-1 4 31v9l-17 4-9 1h-11l-15-2-13-5-9-7-7-8-5-10-3-11-1-7-1-29v-81l1-6h-29l-1-1v-37l29-1v-48l10-7 26-16z" fill="#494745"/>
<path transform="translate(997,273)" d="m0 0h13l8 2-1 16-4 32-30 1-10 4-6 5-5 8-1 136h-53l-1-1v-199h51l2 27 10-15 8-8 14-7z" fill="#464645"/>
<path transform="translate(1233,586)" d="m0 0h15l7 2-2 20-3 25-1 3h-22l-11 2-8 4-8 9-1 2-1 136-1 1h-53v-200l16-1h33l2 6 2 22 7-12 7-8 10-7 7-3z" fill="#F59321"/>
<path transform="translate(1280,589)" d="m0 0h35l18 1v200h-53l-1-1v-199z" fill="#F59321"/>
<path transform="translate(1043,277)" d="m0 0h54v200h-54z" fill="#464645"/>
<path transform="translate(1043,159)" d="m0 0h54v69l-1 1h-53z" fill="#484745"/>
</svg>
