<svg width="106" height="32" viewBox="0 0 106 32" fill="none" aria-label="logo topsector energie" xmlns="http://www.w3.org/2000/svg">
    <path d="M5.70898 14.0513C5.86523 14.0513 6.0166 14.0415 6.16309 14.022C6.30957 14.0073 6.44629 13.9902 6.57324 13.9707V12.6963C6.46094 12.7061 6.36084 12.7134 6.27295 12.7183C6.18994 12.7231 6.08984 12.7256 5.97266 12.7256C5.57715 12.7256 5.29395 12.6328 5.12305 12.4473C4.95215 12.2568 4.8667 11.9468 4.8667 11.5171V7.29834H6.57324V6.0459H4.8667V4.03906H3.24072V6.0459H1.99561V7.29834H3.24072V11.9053C3.24072 12.667 3.43359 13.2163 3.81934 13.5532C4.20996 13.8853 4.83984 14.0513 5.70898 14.0513ZM11.7148 14.1538C12.4961 14.1538 13.165 13.9878 13.7217 13.6558C14.2832 13.3237 14.7153 12.8501 15.0181 12.2349C15.3257 11.6147 15.4795 10.8799 15.4795 10.0303V10.0156C15.4795 9.16113 15.3257 8.42627 15.0181 7.81104C14.7153 7.19092 14.2832 6.71729 13.7217 6.39014C13.1602 6.05811 12.4912 5.89209 11.7148 5.89209C10.9434 5.89209 10.2744 6.05811 9.70801 6.39014C9.14648 6.72217 8.71191 7.1958 8.4043 7.81104C8.10156 8.42627 7.9502 9.16113 7.9502 10.0156V10.0303C7.9502 10.8799 8.10156 11.6147 8.4043 12.2349C8.70703 12.8501 9.13916 13.3237 9.70068 13.6558C10.2671 13.9878 10.9385 14.1538 11.7148 14.1538ZM11.7148 12.8208C11.2607 12.8208 10.875 12.7109 10.5576 12.4912C10.2402 12.2666 9.99609 11.9468 9.8252 11.5317C9.65918 11.1167 9.57617 10.6162 9.57617 10.0303V10.0156C9.57617 9.4248 9.65918 8.92188 9.8252 8.50684C9.99609 8.0918 10.2402 7.77441 10.5576 7.55469C10.875 7.33008 11.2607 7.21777 11.7148 7.21777C12.1689 7.21777 12.5547 7.33008 12.8721 7.55469C13.1895 7.77441 13.4312 8.0918 13.5972 8.50684C13.7632 8.92188 13.8462 9.4248 13.8462 10.0156V10.0303C13.8462 10.6162 13.7632 11.1167 13.5972 11.5317C13.4312 11.9468 13.1895 12.2666 12.8721 12.4912C12.5547 12.7109 12.1689 12.8208 11.7148 12.8208ZM17.3691 16.6514H18.9585V12.7402H19.083C19.2246 13.0283 19.4175 13.2749 19.6616 13.48C19.9058 13.6851 20.1865 13.8462 20.5039 13.9634C20.8213 14.0757 21.1631 14.1318 21.5293 14.1318C22.2031 14.1318 22.7866 13.9658 23.2798 13.6338C23.7729 13.2969 24.1538 12.8232 24.4224 12.2129C24.6909 11.5977 24.8252 10.8701 24.8252 10.0303V10.0156C24.8252 9.18066 24.6885 8.45801 24.415 7.84766C24.1465 7.23242 23.7656 6.75635 23.2725 6.41943C22.7793 6.07764 22.1982 5.90674 21.5293 5.90674C21.1582 5.90674 20.8164 5.96289 20.5039 6.0752C20.1914 6.1875 19.9131 6.34619 19.6689 6.55127C19.4297 6.75635 19.2344 7.00537 19.083 7.29834H18.9585V6.0459H17.3691V16.6514ZM21.0752 12.7695C20.6357 12.7695 20.2549 12.6597 19.9326 12.4399C19.6104 12.2153 19.3638 11.8979 19.1929 11.4878C19.022 11.0776 18.9365 10.5918 18.9365 10.0303V10.0156C18.9365 9.44434 19.022 8.95605 19.1929 8.55078C19.3638 8.14062 19.6104 7.82568 19.9326 7.60596C20.2549 7.38135 20.6357 7.26904 21.0752 7.26904C21.5195 7.26904 21.9004 7.37891 22.2178 7.59863C22.5352 7.81836 22.7769 8.1333 22.9429 8.54346C23.1138 8.95361 23.1992 9.44434 23.1992 10.0156V10.0303C23.1992 10.5967 23.1138 11.085 22.9429 11.4951C22.7769 11.9053 22.5352 12.2202 22.2178 12.4399C21.9004 12.6597 21.5195 12.7695 21.0752 12.7695ZM29.6226 14.1538C30.2573 14.1538 30.8213 14.0513 31.3145 13.8462C31.8125 13.6362 32.2056 13.3457 32.4937 12.9746C32.7817 12.5986 32.9258 12.1665 32.9258 11.6782V11.6636C32.9258 11.0874 32.7378 10.6284 32.3618 10.2866C31.9907 9.94482 31.4243 9.68359 30.6626 9.50293L29.3955 9.21729C29.1025 9.14404 28.8633 9.06104 28.6777 8.96826C28.4922 8.87061 28.3555 8.76074 28.2676 8.63867C28.1846 8.51172 28.1431 8.36523 28.1431 8.19922V8.18457C28.1431 7.96973 28.2065 7.78418 28.3335 7.62793C28.4653 7.4668 28.6436 7.34229 28.8682 7.25439C29.0928 7.16162 29.3491 7.11523 29.6372 7.11523C30.0864 7.11523 30.4478 7.20801 30.7212 7.39355C30.9995 7.5791 31.1753 7.81104 31.2485 8.08936V8.104H32.772V8.09668C32.7231 7.66211 32.5669 7.28125 32.3032 6.9541C32.0396 6.62207 31.6807 6.36328 31.2266 6.17773C30.7773 5.9873 30.25 5.89209 29.6445 5.89209C29.0439 5.89209 28.5093 5.99463 28.0405 6.19971C27.5767 6.3999 27.2129 6.68066 26.9492 7.04199C26.6855 7.39844 26.5537 7.80859 26.5537 8.27246V8.27979C26.5537 8.66553 26.6318 9.00244 26.7881 9.29053C26.9443 9.57373 27.186 9.81299 27.5132 10.0083C27.8403 10.2036 28.2529 10.3574 28.751 10.4697L30.0254 10.7627C30.4844 10.8701 30.814 11.0093 31.0142 11.1802C31.2144 11.3511 31.3145 11.561 31.3145 11.8101V11.8247C31.3145 12.0396 31.2437 12.23 31.1021 12.396C30.9604 12.562 30.7651 12.6914 30.5161 12.7842C30.272 12.877 29.9863 12.9233 29.6592 12.9233C29.1855 12.9233 28.8047 12.8306 28.5166 12.645C28.2285 12.4595 28.0332 12.2178 27.9307 11.9199V11.9053H26.334V11.9199C26.3828 12.3643 26.5464 12.7549 26.8247 13.0918C27.103 13.4238 27.479 13.6851 27.9526 13.8755C28.4263 14.061 28.9829 14.1538 29.6226 14.1538ZM38.1553 14.1538C38.668 14.1538 39.1196 14.0879 39.5103 13.9561C39.9058 13.8242 40.2427 13.6509 40.521 13.436C40.8042 13.2212 41.0312 12.9844 41.2021 12.7256C41.373 12.4619 41.4927 12.1982 41.561 11.9346L41.5757 11.8687H40.0376L40.0083 11.9272C39.9497 12.064 39.8398 12.2031 39.6787 12.3447C39.5225 12.4863 39.3198 12.606 39.0708 12.7036C38.8267 12.7964 38.5337 12.8428 38.1919 12.8428C37.7476 12.8428 37.3618 12.7451 37.0347 12.5498C36.7124 12.3545 36.4634 12.0713 36.2876 11.7002C36.1118 11.3291 36.0239 10.8823 36.0239 10.3599V9.72266C36.0239 9.17578 36.1118 8.71436 36.2876 8.33838C36.4683 7.9624 36.7124 7.6792 37.02 7.48877C37.3325 7.29346 37.6865 7.1958 38.082 7.1958C38.4775 7.1958 38.8267 7.28857 39.1294 7.47412C39.4321 7.65967 39.6689 7.94043 39.8398 8.31641C40.0156 8.6875 40.1035 9.15625 40.1035 9.72266V10.3599L40.8652 9.30518H35.2256V10.4404H41.6562V9.88379C41.6562 9.08301 41.5122 8.38477 41.2241 7.78906C40.936 7.18848 40.5234 6.72217 39.9863 6.39014C39.4541 6.05811 38.8169 5.89209 38.0747 5.89209C37.3374 5.89209 36.6929 6.06543 36.1411 6.41211C35.5942 6.75879 35.1694 7.24219 34.8667 7.8623C34.5688 8.48242 34.4199 9.20752 34.4199 10.0376V10.0449C34.4199 10.8848 34.5688 11.6123 34.8667 12.2275C35.1694 12.8428 35.5991 13.3188 36.1558 13.6558C36.7124 13.9878 37.3789 14.1538 38.1553 14.1538ZM46.8931 14.1538C47.5522 14.1538 48.1162 14.0439 48.585 13.8242C49.0586 13.5996 49.437 13.292 49.7202 12.9014C50.0034 12.5107 50.1914 12.0566 50.2842 11.5391L50.2988 11.4731L48.7754 11.4805L48.7607 11.5171C48.6338 11.9468 48.4141 12.2715 48.1016 12.4912C47.7939 12.7109 47.3911 12.8208 46.8931 12.8208C46.4585 12.8208 46.0825 12.7085 45.7651 12.4839C45.4478 12.2544 45.2036 11.9297 45.0327 11.5098C44.8618 11.0898 44.7764 10.5869 44.7764 10.001V9.98633C44.7764 9.41504 44.8594 8.92188 45.0254 8.50684C45.1963 8.0918 45.4404 7.77441 45.7578 7.55469C46.0752 7.33008 46.4536 7.21777 46.8931 7.21777C47.4204 7.21777 47.8428 7.34961 48.1602 7.61328C48.4775 7.87207 48.6802 8.19678 48.7681 8.5874L48.7754 8.60205H50.3062L50.2988 8.56543C50.2256 8.05273 50.0449 7.59619 49.7568 7.1958C49.4736 6.79053 49.0903 6.47314 48.6069 6.24365C48.1284 6.00928 47.5547 5.89209 46.8857 5.89209C46.1143 5.89209 45.4478 6.05811 44.8862 6.39014C44.3296 6.72217 43.8999 7.19336 43.5972 7.80371C43.2993 8.41406 43.1504 9.1416 43.1504 9.98633V10.001C43.1504 10.8604 43.3018 11.6001 43.6045 12.2202C43.9072 12.8403 44.3369 13.3188 44.8936 13.6558C45.4551 13.9878 46.1216 14.1538 46.8931 14.1538ZM55.2207 14.0513C55.377 14.0513 55.5283 14.0415 55.6748 14.022C55.8213 14.0073 55.958 13.9902 56.085 13.9707V12.6963C55.9727 12.7061 55.8726 12.7134 55.7847 12.7183C55.7017 12.7231 55.6016 12.7256 55.4844 12.7256C55.0889 12.7256 54.8057 12.6328 54.6348 12.4473C54.4639 12.2568 54.3784 11.9468 54.3784 11.5171V7.29834H56.085V6.0459H54.3784V4.03906H52.7524V6.0459H51.5073V7.29834H52.7524V11.9053C52.7524 12.667 52.9453 13.2163 53.3311 13.5532C53.7217 13.8853 54.3516 14.0513 55.2207 14.0513ZM61.2266 14.1538C62.0078 14.1538 62.6768 13.9878 63.2334 13.6558C63.7949 13.3237 64.2271 12.8501 64.5298 12.2349C64.8374 11.6147 64.9912 10.8799 64.9912 10.0303V10.0156C64.9912 9.16113 64.8374 8.42627 64.5298 7.81104C64.2271 7.19092 63.7949 6.71729 63.2334 6.39014C62.6719 6.05811 62.0029 5.89209 61.2266 5.89209C60.4551 5.89209 59.7861 6.05811 59.2197 6.39014C58.6582 6.72217 58.2236 7.1958 57.916 7.81104C57.6133 8.42627 57.4619 9.16113 57.4619 10.0156V10.0303C57.4619 10.8799 57.6133 11.6147 57.916 12.2349C58.2188 12.8501 58.6509 13.3237 59.2124 13.6558C59.7788 13.9878 60.4502 14.1538 61.2266 14.1538ZM61.2266 12.8208C60.7725 12.8208 60.3867 12.7109 60.0693 12.4912C59.752 12.2666 59.5078 11.9468 59.3369 11.5317C59.1709 11.1167 59.0879 10.6162 59.0879 10.0303V10.0156C59.0879 9.4248 59.1709 8.92188 59.3369 8.50684C59.5078 8.0918 59.752 7.77441 60.0693 7.55469C60.3867 7.33008 60.7725 7.21777 61.2266 7.21777C61.6807 7.21777 62.0664 7.33008 62.3838 7.55469C62.7012 7.77441 62.9429 8.0918 63.1089 8.50684C63.2749 8.92188 63.3579 9.4248 63.3579 10.0156V10.0303C63.3579 10.6162 63.2749 11.1167 63.1089 11.5317C62.9429 11.9468 62.7012 12.2666 62.3838 12.4912C62.0664 12.7109 61.6807 12.8208 61.2266 12.8208ZM66.8809 14H68.4702V9.24658C68.4702 8.86084 68.5557 8.52881 68.7266 8.25049C68.9023 7.96729 69.1416 7.74756 69.4443 7.59131C69.752 7.43506 70.1084 7.35693 70.5137 7.35693C70.665 7.35693 70.8091 7.36426 70.9458 7.37891C71.0874 7.39355 71.229 7.41553 71.3706 7.44482V5.97998C71.2925 5.96045 71.1899 5.94336 71.063 5.92871C70.936 5.91406 70.8066 5.90674 70.6748 5.90674C70.1475 5.90674 69.7031 6.02393 69.3418 6.2583C68.9854 6.49268 68.7363 6.82227 68.5947 7.24707H68.4702V6.0459H66.8809V14Z" fill="currentColor"></path>
    <path d="M21.9688 28.1538C22.4814 28.1538 22.9331 28.0879 23.3237 27.9561C23.7192 27.8242 24.0562 27.6509 24.3345 27.436C24.6177 27.2212 24.8447 26.9844 25.0156 26.7256C25.1865 26.4619 25.3062 26.1982 25.3745 25.9346L25.3892 25.8687H23.8511L23.8218 25.9272C23.7632 26.064 23.6533 26.2031 23.4922 26.3447C23.3359 26.4863 23.1333 26.606 22.8843 26.7036C22.6401 26.7964 22.3472 26.8428 22.0054 26.8428C21.561 26.8428 21.1753 26.7451 20.8481 26.5498C20.5259 26.3545 20.2769 26.0713 20.1011 25.7002C19.9253 25.3291 19.8374 24.8823 19.8374 24.3599V23.7227C19.8374 23.1758 19.9253 22.7144 20.1011 22.3384C20.2817 21.9624 20.5259 21.6792 20.8335 21.4888C21.146 21.2935 21.5 21.1958 21.8955 21.1958C22.291 21.1958 22.6401 21.2886 22.9429 21.4741C23.2456 21.6597 23.4824 21.9404 23.6533 22.3164C23.8291 22.6875 23.917 23.1562 23.917 23.7227V24.3599L24.6787 23.3052H19.0391V24.4404H25.4697V23.8838C25.4697 23.083 25.3257 22.3848 25.0376 21.7891C24.7495 21.1885 24.3369 20.7222 23.7998 20.3901C23.2676 20.0581 22.6304 19.8921 21.8882 19.8921C21.1509 19.8921 20.5063 20.0654 19.9546 20.4121C19.4077 20.7588 18.9829 21.2422 18.6802 21.8623C18.3823 22.4824 18.2334 23.2075 18.2334 24.0376V24.0449C18.2334 24.8848 18.3823 25.6123 18.6802 26.2275C18.9829 26.8428 19.4126 27.3188 19.9692 27.6558C20.5259 27.9878 21.1924 28.1538 21.9688 28.1538ZM27.3594 28H28.9487V23.3345C28.9487 22.9048 29.0244 22.5361 29.1758 22.2285C29.332 21.916 29.5518 21.6768 29.835 21.5107C30.1182 21.3398 30.4526 21.2544 30.8384 21.2544C31.4243 21.2544 31.854 21.418 32.1274 21.7451C32.4058 22.0674 32.5449 22.5605 32.5449 23.2246V28H34.1416V22.8511C34.1416 21.9038 33.9048 21.1738 33.4312 20.6611C32.9575 20.1484 32.2739 19.8921 31.3804 19.8921C30.7993 19.8921 30.3184 20.0117 29.9375 20.251C29.5566 20.4902 29.2686 20.8223 29.0732 21.2471H28.9487V20.0459H27.3594V28ZM39.6934 28.1538C40.2061 28.1538 40.6577 28.0879 41.0483 27.9561C41.4438 27.8242 41.7808 27.6509 42.0591 27.436C42.3423 27.2212 42.5693 26.9844 42.7402 26.7256C42.9111 26.4619 43.0308 26.1982 43.0991 25.9346L43.1138 25.8687H41.5757L41.5464 25.9272C41.4878 26.064 41.3779 26.2031 41.2168 26.3447C41.0605 26.4863 40.8579 26.606 40.6089 26.7036C40.3647 26.7964 40.0718 26.8428 39.73 26.8428C39.2856 26.8428 38.8999 26.7451 38.5728 26.5498C38.2505 26.3545 38.0015 26.0713 37.8257 25.7002C37.6499 25.3291 37.562 24.8823 37.562 24.3599V23.7227C37.562 23.1758 37.6499 22.7144 37.8257 22.3384C38.0063 21.9624 38.2505 21.6792 38.5581 21.4888C38.8706 21.2935 39.2246 21.1958 39.6201 21.1958C40.0156 21.1958 40.3647 21.2886 40.6675 21.4741C40.9702 21.6597 41.207 21.9404 41.3779 22.3164C41.5537 22.6875 41.6416 23.1562 41.6416 23.7227V24.3599L42.4033 23.3052H36.7637V24.4404H43.1943V23.8838C43.1943 23.083 43.0503 22.3848 42.7622 21.7891C42.4741 21.1885 42.0615 20.7222 41.5244 20.3901C40.9922 20.0581 40.355 19.8921 39.6128 19.8921C38.8755 19.8921 38.231 20.0654 37.6792 20.4121C37.1323 20.7588 36.7075 21.2422 36.4048 21.8623C36.1069 22.4824 35.958 23.2075 35.958 24.0376V24.0449C35.958 24.8848 36.1069 25.6123 36.4048 26.2275C36.7075 26.8428 37.1372 27.3188 37.6938 27.6558C38.2505 27.9878 38.917 28.1538 39.6934 28.1538ZM45.084 28H46.6733V23.2466C46.6733 22.8608 46.7588 22.5288 46.9297 22.2505C47.1055 21.9673 47.3447 21.7476 47.6475 21.5913C47.9551 21.4351 48.3115 21.3569 48.7168 21.3569C48.8682 21.3569 49.0122 21.3643 49.1489 21.3789C49.2905 21.3936 49.4321 21.4155 49.5737 21.4448V19.98C49.4956 19.9604 49.3931 19.9434 49.2661 19.9287C49.1392 19.9141 49.0098 19.9067 48.8779 19.9067C48.3506 19.9067 47.9062 20.0239 47.5449 20.2583C47.1885 20.4927 46.9395 20.8223 46.7979 21.2471H46.6733V20.0459H45.084V28ZM54.2612 30.8052C55.0181 30.8052 55.6724 30.6831 56.2241 30.439C56.7759 30.1948 57.2007 29.8506 57.4985 29.4062C57.8013 28.9619 57.9526 28.4395 57.9526 27.8389V20.0459H56.3633V21.3496H56.2681C56.1118 21.0518 55.9141 20.7954 55.6748 20.5806C55.4355 20.3657 55.1597 20.1997 54.8472 20.0825C54.5396 19.9653 54.2002 19.9067 53.8291 19.9067C53.1406 19.9067 52.5474 20.0728 52.0493 20.4048C51.5513 20.7319 51.168 21.1885 50.8994 21.7744C50.6309 22.3555 50.4966 23.0244 50.4966 23.7812V23.7959C50.4966 24.543 50.6284 25.2046 50.8921 25.7808C51.1606 26.3521 51.5415 26.8013 52.0347 27.1284C52.5327 27.4507 53.1187 27.6118 53.7925 27.6118C54.1587 27.6118 54.498 27.5605 54.8105 27.458C55.123 27.3555 55.4014 27.2041 55.6455 27.0039C55.8896 26.7988 56.0898 26.5547 56.2461 26.2715H56.3706V27.8315C56.3706 28.3687 56.1851 28.7861 55.814 29.084C55.4478 29.3818 54.9375 29.5308 54.2832 29.5308C53.751 29.5308 53.3262 29.4429 53.0088 29.2671C52.6914 29.0913 52.4985 28.8667 52.4302 28.5933L52.4229 28.5786H50.8115L50.8042 28.5933C50.8677 29.0327 51.0435 29.4185 51.3315 29.7505C51.6196 30.0825 52.0103 30.3413 52.5034 30.5269C53.0015 30.7124 53.5874 30.8052 54.2612 30.8052ZM54.2393 26.2935C53.79 26.2935 53.4067 26.1885 53.0894 25.9785C52.7769 25.7637 52.5376 25.4683 52.3716 25.0923C52.2056 24.7163 52.1226 24.2817 52.1226 23.7886V23.7739C52.1226 23.2808 52.2056 22.8462 52.3716 22.4702C52.5376 22.0894 52.7769 21.7915 53.0894 21.5767C53.4067 21.3618 53.79 21.2544 54.2393 21.2544C54.6885 21.2544 55.0742 21.3618 55.3965 21.5767C55.7188 21.7915 55.9653 22.0894 56.1362 22.4702C56.312 22.8511 56.3999 23.2856 56.3999 23.7739V23.7886C56.3999 24.2817 56.312 24.7163 56.1362 25.0923C55.9653 25.4683 55.7188 25.7637 55.3965 25.9785C55.0742 26.1885 54.6885 26.2935 54.2393 26.2935ZM60.2671 28H61.8638V20.0459H60.2671V28ZM61.0728 18.625C61.3462 18.625 61.5806 18.5273 61.7759 18.332C61.9712 18.1367 62.0688 17.9023 62.0688 17.6289C62.0688 17.3555 61.9712 17.1235 61.7759 16.9331C61.5806 16.7378 61.3462 16.6401 61.0728 16.6401C60.7993 16.6401 60.5649 16.7378 60.3696 16.9331C60.1743 17.1235 60.0767 17.3555 60.0767 17.6289C60.0767 17.9023 60.1743 18.1367 60.3696 18.332C60.5649 18.5273 60.7993 18.625 61.0728 18.625ZM67.5107 28.1538C68.0234 28.1538 68.4751 28.0879 68.8657 27.9561C69.2612 27.8242 69.5981 27.6509 69.8765 27.436C70.1597 27.2212 70.3867 26.9844 70.5576 26.7256C70.7285 26.4619 70.8481 26.1982 70.9165 25.9346L70.9312 25.8687H69.3931L69.3638 25.9272C69.3052 26.064 69.1953 26.2031 69.0342 26.3447C68.8779 26.4863 68.6753 26.606 68.4263 26.7036C68.1821 26.7964 67.8892 26.8428 67.5474 26.8428C67.103 26.8428 66.7173 26.7451 66.3901 26.5498C66.0679 26.3545 65.8188 26.0713 65.6431 25.7002C65.4673 25.3291 65.3794 24.8823 65.3794 24.3599V23.7227C65.3794 23.1758 65.4673 22.7144 65.6431 22.3384C65.8237 21.9624 66.0679 21.6792 66.3755 21.4888C66.688 21.2935 67.042 21.1958 67.4375 21.1958C67.833 21.1958 68.1821 21.2886 68.4849 21.4741C68.7876 21.6597 69.0244 21.9404 69.1953 22.3164C69.3711 22.6875 69.459 23.1562 69.459 23.7227V24.3599L70.2207 23.3052H64.5811V24.4404H71.0117V23.8838C71.0117 23.083 70.8677 22.3848 70.5796 21.7891C70.2915 21.1885 69.8789 20.7222 69.3418 20.3901C68.8096 20.0581 68.1724 19.8921 67.4302 19.8921C66.6929 19.8921 66.0483 20.0654 65.4966 20.4121C64.9497 20.7588 64.5249 21.2422 64.2222 21.8623C63.9243 22.4824 63.7754 23.2075 63.7754 24.0376V24.0449C63.7754 24.8848 63.9243 25.6123 64.2222 26.2275C64.5249 26.8428 64.9546 27.3188 65.5112 27.6558C66.0679 27.9878 66.7344 28.1538 67.5107 28.1538Z" fill="#FF885A"></path>
    <path d="M90.2172 5.59607L81.8232 20.0165" stroke="#FF885A" stroke-width="1.29138"></path>
    <path d="M86.9883 11.192L97.2117 27.98" stroke="#FF885A" stroke-width="1.29138"></path>
    <path d="M91.9385 19.048L99.6868 13.3444L101.086 3.55145" stroke="#FF885A" stroke-width="1.29138"></path>
    <circle cx="101.517" cy="3.76653" r="3.76653" fill="#FF885A"></circle>
    <circle cx="87.0962" cy="11.2996" r="3.5513" fill="#FF885A"></circle>
    <circle cx="90.5402" cy="4.8428" r="2.25992" fill="#FF885A"></circle>
    <circle cx="81.9306" cy="20.5545" r="2.69038" fill="#FF885A"></circle>
    <circle cx="99.3642" cy="13.6673" r="2.69038" fill="#FF885A"></circle>
    <circle cx="91.831" cy="19.2632" r="3.76653" fill="#FF885A"></circle>
    <circle cx="97.6423" cy="28.3028" r="3.12084" fill="#FF885A"></circle>
</svg>