<svg viewBox="0 0 286 41" fill="none" xmlns="http://www.w3.org/2000/svg">
<path d="M0.977661 7.00878V12.9186C1.00954 12.914 1.04143 12.9118 1.07331 12.9072C5.32747 12.4062 9.06921 15.7312 9.06921 20.0149V40.2358H14.9289V17.4233C14.9289 13.9275 17.5844 10.9942 21.0779 10.6617C24.3345 10.3497 27.0059 12.8685 27.0059 16.1388V40.2336H32.8656V16.8107C32.8656 12.5497 36.0767 8.97189 40.3172 8.51414C44.2753 8.08827 47.7051 11.2584 47.7051 15.2393V40.2336H53.5648V15.2666C53.5648 10.6048 57.0355 6.69223 61.6563 6.13199V0.23584L0.977661 7.00878Z" fill="#7C3AED"/>
<path d="M165.601 9.55967V30.8373H183.417V27.0135H171.456V22.1035H180.971V18.2798H171.456V13.388H183.417V9.56422L165.601 9.55967Z" fill="#7C3AED"/>
<path d="M213.617 30.8305H213.637C213.637 30.835 213.637 30.8396 213.637 30.8441C215.58 30.8441 217.5 30.8441 219.454 30.8441C219.454 30.8396 219.454 30.835 219.454 30.8305H219.474V9.55967H213.619V30.8305H213.617Z" fill="#7C3AED"/>
<path d="M89.2377 9.55967H73.3666V30.8305H79.2217V23.8229H89.2377C93.1753 23.8229 96.3682 20.63 96.3682 16.6924C96.3682 12.7526 93.1753 9.55967 89.2377 9.55967ZM87.2108 19.9924H79.2217V13.388H87.2108C89.035 13.388 90.513 14.866 90.513 16.6902C90.513 18.5143 89.035 19.9924 87.2108 19.9924Z" fill="#7C3AED"/>
<path d="M208.873 16.6902C208.873 12.7526 205.68 9.55967 201.743 9.55967H187.88V30.8305H193.736V23.8229H197.596L202.918 30.8305H209.996L204.307 23.3401C206.976 22.3085 208.873 19.7236 208.873 16.6902ZM199.716 19.9901H193.736V13.388H199.716C201.54 13.388 203.018 14.866 203.018 16.6902C203.018 18.5143 201.54 19.9901 199.716 19.9901Z" fill="#7C3AED"/>
<path d="M116.052 9.01978H108.074C103.036 9.01978 98.9166 13.1396 98.9166 18.1772V22.2924C98.9166 27.3277 103.036 31.4497 108.074 31.4497H116.052C121.089 31.4497 125.209 27.33 125.209 22.2924V18.1772C125.209 13.1396 121.089 9.01978 116.052 9.01978ZM119.19 21.7618C119.19 24.7679 116.73 27.2275 113.724 27.2275H110.401C107.395 27.2275 104.936 24.7679 104.936 21.7618V18.7055C104.936 15.6994 107.395 13.2398 110.401 13.2398H113.724C116.73 13.2398 119.19 15.6994 119.19 18.7055V21.7618Z" fill="#7C3AED"/>
<path d="M242.176 21.6093C242.176 24.3126 240.269 26.5262 237.942 26.5262H235.368C233.039 26.5262 231.133 24.3126 231.133 21.6093V9.55967H225.334V22.2925C225.334 27.3278 228.882 31.4499 233.221 31.4499H240.089C244.428 31.4499 247.976 27.3301 247.976 22.2925V9.55967H242.178V21.6093H242.176Z" fill="#7C3AED"/>
<path d="M161.153 30.8303C160.281 23.7294 159.372 16.6604 158.5 9.55953C158.431 9.55498 151.765 9.55953 151.765 9.55953L144.899 24.2327L138.033 9.55953C138.033 9.55953 131.369 9.55498 131.299 9.55953C130.426 16.6627 129.518 23.7317 128.645 30.8303H134.097C134.649 26.1936 135.252 21.6821 135.819 17.0749C137.429 20.5138 140.49 27.0521 142.257 30.8303H147.545L153.984 17.0749C154.551 21.6821 155.152 26.1936 155.705 30.8303H161.153Z" fill="#7C3AED"/>
<path d="M285.022 30.8303C284.15 23.7294 283.241 16.6604 282.369 9.55953C282.301 9.55498 275.635 9.55953 275.635 9.55953L268.769 24.2327L261.902 9.55953C261.902 9.55953 255.239 9.55498 255.168 9.55953C254.296 16.6627 253.387 23.7317 252.515 30.8303H257.967C258.518 26.1936 259.122 21.6821 259.689 17.0749C261.299 20.5138 264.36 27.0521 266.127 30.8303H271.415L277.853 17.0749C278.42 21.6821 279.021 26.1936 279.575 30.8303H285.022Z" fill="#7C3AED"/>
</svg>
