<?xml version="1.0" encoding="UTF-8"?>
<svg version="1.1" viewBox="0 0 800 800" width="200" height="200" xmlns="http://www.w3.org/2000/svg">
<path transform="translate(0)" d="m0 0h800v800h-800z" fill="#FDFDFD"/>
<path transform="translate(211,330)" d="m0 0h49l14 2 8 4 6 5 5 9 2 5 1 13-2 9-3 6-4 5-10 7h-2l5 9 11 16 7 10-1 2h-24l-8-11-13-19-1-1-19-1v32h-22v-101z" fill="#037F96"/>
<path transform="translate(510,330)" d="m0 0h20l11 13 28 38 9 12h1v-62h22v101h-19l-5-5-7-8-11-15-16-21-10-13-2-3-1 65h-21l-1-1v-100z" fill="#037F96"/>
<path transform="translate(408,315)" d="m0 0 10 1 58 13 10 3 1 38v24l-1 38h-77l-1-1v-19l8-1h48v-22l-28-2-28-3v-21h9l44 5h2v-20l-12-3-41-8-2-1z" fill="#037F96"/>
<path transform="translate(140,328)" d="m0 0h11l16 3 14 7 4 3-1 4-7 9-4 5-4-1-14-7-4-1h-10l-9 3-10 9-4 8-1 4v13l4 11 6 8 9 5 5 1h9l10-2 5-3 1-2v-10l-2-1-20-1v-20l1-1h43v47l-9 6-11 5-12 3h-20l-12-3-9-5-10-9-7-10-4-10-2-10v-10l3-13 6-12 9-10 10-7 14-5z" fill="#037F96"/>
<path transform="translate(439,465)" d="m0 0h31l4 9 19 58 10 31v4h-22l-3-4-4-13v-2l-38-1-3 10-4 9-1 1h-20l-1-5 12-38 14-44 4-13z" fill="#037F96"/>
<path transform="translate(388,315)" d="m0 0h4v21l-12 3-42 8h-2l1 21 21-2 26-3h8v21l-51 5h-5l1 22h54l1 1v19l-3 1h-75l-1-99 6-3z" fill="#037F96"/>
<path transform="translate(556,463)" d="m0 0h8l15 3 14 7 5 5-10 14-4 2-16-8-3-1h-12l-10 4-6 5-5 8-2 6v16l4 10 7 8 8 4 4 1h13l8-3 4-2 1-2v-10l-1-1-21-1v-20h44l1 43-2 4-14 8-12 4-5 1h-20l-9-2-14-7-9-8-6-10-4-10-2-12v-8l2-10 5-12 7-9 9-8 10-5 10-3z" fill="#037F96"/>
<path transform="translate(624,465)" d="m0 0h72l2 2-1 17-1 2-51 1v17l1 1h20l25 1v19l-1 1h-45l-1 20h54v20l-1 1h-65l-11-1v-100z" fill="#037F96"/>
<path transform="translate(96,465)" d="m0 0h23l4 8 14 45 7 22 1 3 2 1 1-8 7-25 9-28 5-17 5-1h20l-3 11-26 79-4 11-2 1h-29l-3-5-12-37-10-31-9-26z" fill="#037F96"/>
<path transform="translate(333,465)" d="m0 0h22l1 80 41 1 1 3-2 18h-37l-26-1-1-41v-59z" fill="#037F96"/>
<path transform="translate(262,465)" d="m0 0h17l1 17v64h33l9 1-1 19h-63l-1-5v-95z" fill="#037F96"/>
<path transform="translate(225,229)" d="m0 0h51v14l-35 1-1 11 32 1v13l-31 1v12l35 1v14h-51z" fill="#037F96"/>
<path transform="translate(159,229)" d="m0 0h10v26h26v-25l1-1h14v67l-1 1h-13l-1-1-1-26h-24l-1 27h-15v-67z" fill="#037F96"/>
<path transform="translate(229,465)" d="m0 0 3 2v98l-1 1h-21v-100z" fill="#037F96"/>
<path transform="translate(90,229)" d="m0 0h53v14l-18 1-1 52-3 1h-11l-1-1-1-52-18-1-1-4z" fill="#037F96"/>
<path transform="translate(232,351)" d="m0 0h29l7 3 4 5 1 7-3 7-5 5-2 1-9 1h-21l-1-1z" fill="#FDFDFD"/>
<path transform="translate(453,486)" d="m0 0 4 4 8 25 2 7v4h-24l-1-3 9-30z" fill="#FDFDFD"/>
</svg>
