<?xml version="1.0" encoding="UTF-8"?>
<svg version="1.1" viewBox="0 0 2048 494" width="4043" height="977" xmlns="http://www.w3.org/2000/svg">
<path transform="translate(1877)" d="m0 0h18l26 3 19 5 16 6 17 9 16 12 12 11 11 12 9 13 8 14 7 15 6 19 4 20 2 18v32l-3 23-5 21-8 21-9 17-11 16-13 15-13 12-14 10-19 10-21 7-20 4-11 1h-25l-23-3-21-6-21-10-14-10-12-11-8-9-2-1v198h-83v-407h-29l-30 2-24 4-18 5-18 8-11 7-10 9-9 12-6 15-2 10-1 178-1 1h-82v-329h83l1 51 6-11 8-10 9-8 15-10 14-6 20-4 22-2 33-1h26l83 1 1 48 8-11 9-10 8-8 13-9 15-8 18-6 14-3zm-11 74-19 2-16 5-14 7-13 10-10 10-9 13-7 14-5 19-1 8v23l3 17 5 14 8 15 9 11 9 9 10 7 16 8 14 4 15 2h15l19-3 14-5 13-7 9-7 10-9 8-10 8-14 5-14 3-15v-30l-4-18-7-16-8-12-9-10-7-7-15-10-14-6-18-4z" fill="#4BBFD9"/>
<path transform="translate(861)" d="m0 0h19l19 2 23 5 16 6 16 8 12 8 11 9 17 17 11 15 9 16 8 18 6 21 3 17 1 9v44l-4 25-5 18-8 19-8 15-12 17-12 13-10 10-15 11-18 10-19 7-25 5-11 1h-24l-18-2-21-5-19-8-15-9-11-9-6-5-7-8-2-3-3-1v198h-82v-485h78v49h2l2-5 8-10 9-10 11-9 13-8 15-7 21-6 13-2zm-11 74-18 2-17 5-15 8-10 8-8 7-8 10-8 13-6 16-3 14v32l4 18 5 12 6 11 8 10 5 6 11 9 14 8 13 5 13 3 9 1h16l14-2 16-5 14-7 12-9 12-12 7-10 8-16 4-14 2-13v-22l-3-17-6-16-6-11-11-14-12-11-13-8-11-5-14-4-19-2z" fill="#4BBFD9"/>
<path transform="translate(1236)" d="m0 0h19l20 2 23 5 20 8 14 8 14 11 13 13 11 15 10 17 8 19 7 23 4 23 2 28v29l-1 1h-251l3 13 5 15 8 14 9 11 11 9 14 8 16 5 12 2h21l18-3 19-7 15-9 11-9 13-13 1-2 4 1 21 16 19 14 13 10 3 2-2 5-23 23-15 11-17 10-19 8-21 6-18 3-11 1h-26l-26-3-20-5-19-7-16-8-16-10-11-9-12-11-7-7-13-17-9-16-8-18-6-22-3-21v-38l3-20 5-19 6-16 9-17 10-14 12-14 7-7 11-9 14-10 16-9 16-7 15-5 24-5zm-11 62-14 2-15 5-11 6-10 9-9 10-8 14-6 16-3 16h169v-9l-3-17-6-15-8-11-8-8-13-8-11-5-17-4-9-1z" fill="#4BBFD9"/>
<path transform="translate(309,9)" d="m0 0h82l1 182 2 22 5 21 8 16 9 10 10 6 12 4 7 1h14l14-2 15-5 11-7 8-7 9-14 5-11 4-16 1-8 1-192h83v328l-1 1h-78l-1-52-9 16-9 11-10 10-10 7-16 8-15 5-21 3h-23l-21-3-20-6-17-9-12-9-12-12-10-15-8-17-5-18-3-20z" fill="#4BBFD9"/>
<path transform="translate(133)" d="m0 0h20l21 2 20 4 18 6 16 8 14 10 12 11 7 9-12 12-8 7-12 11-8 7-11 10-5 2-12-13-12-9-13-6-12-3-8-1h-13l-15 3-14 7-7 7-4 8-1 5v7l3 9 4 5 11 7 12 5 19 5 46 11 21 7 17 8 13 9 11 10 9 13 6 13 4 15 1 7v24l-3 16-5 13-7 13-11 13-10 9-15 10-17 8-15 5-18 4-14 2-13 1h-29l-26-3-21-5-19-7-17-9-16-12-12-11-2-5 17-16 32-30 4-4 4 2 13 13 13 10 15 8 12 4 12 2h21l14-3 12-5 9-7 6-8 2-5 1-10-2-9-5-8-9-8-15-7-16-5-42-10-27-8-16-6-13-8-10-9-9-10-8-16-4-14-1-7v-27l3-15 5-14 6-11 8-10 5-6 11-9 15-10 15-7 19-6 15-3z" fill="#4BBFD9"/>
</svg>
