<?xml version="1.0" encoding="UTF-8"?>
<svg version="1.1" viewBox="0 0 2048 1017" width="1500" height="745" xmlns="http://www.w3.org/2000/svg">
<path transform="translate(1017,18)" d="m0 0h2l14 25 14 24 14 25 14 24 14 25 7 12 6-2 26-15 12-7-1-4-15-27-8-14v-2l28-16 16-9h2l14 25 28 49 9 16-4 4-28 16-24 14-28 16-5 3 2 6 14 24 15 27 14 24 5 9 6-2 26-15 12-7-1-5-14-24-9-16v-2l25-14 19-11h2l14 25 14 24 14 25 9 15v3l-18 10-24 14-28 16-19 11 2 5 12 22 10 17v3l-28 16-15 9 2 6 14 25 8 14-4 4-28 16-130 75-17 10-4-1-14-25-10-17h-3l-26 15-15 9-3-1-24-42v-2l-20 11-24 14-28 16-19 11-3-3-14-25-14-24-15-27-7-12 4-3 24-14 16-9 3 1 16 28 9 15 14-8 25-14 5-4-14-25-14-24-14-25-8-14v-2l-15 8-24 14-52 30-3-3-16-28-14-25-14-24-6-12 28-16 15-9 4 1 14 25 10 17h3l42-24-6-11-15-27-14-24-14-25-28-49v-2l23-13 21-12h2l14 25 14 24 14 25 9 15h3l41-24-2-6-12-21-10-17 2-4 25-14 24-14 26-15 12-7 3 1 15 27 9 15v2l23-13 21-12-1-5-16-28-14-25-14-24-5-9v-2l25-14zm111 300-26 15-17 10-1 2 15 27 10 17 5-1 17-10 24-14-7-14-14-24-5-8zm-137 79-24 14-19 11 2 6 16 28 7 12 5-2 25-14 16-10-8-14-16-29-1-2z" fill="#3E70B5"/>
<path transform="translate(18,685)" d="m0 0h67l17 44 17 45 42 110 11 28 1-227h54l1 1v317h-67l-6-14-17-45-20-52-21-55-18-47-5-13-1 226h-55z" fill="#3E70B5"/>
<path transform="translate(1033,778)" d="m0 0h43l19 3 18 6 10 6 10 9 7 10 6 15 4 19 2 26v131h-57l-1-23-7 8-9 8-16 8-15 4-8 1h-15l-19-3-14-5-10-6-10-9-7-9-6-12-4-16-1-10v-11l2-15 4-13 7-12 8-9 14-9 15-6 18-4 21-2h53l-2-18-4-8-6-5-9-4-12-2h-15l-18 2-21 5-20 8-13 6v-49l9-4 19-6 22-4zm20 122-16 3-12 6-7 8-3 9-1 12 2 11 4 8 9 8 8 3 5 1h11l12-3 10-6 9-10 6-12 4-17 1-21z" fill="#3E70B5"/>
<path transform="translate(359,778)" d="m0 0h33l20 4 15 6 14 9 12 11 9 13 7 14 5 16 3 17 1 16v27l-1 1h-148l3 17 5 12 9 10 8 5 12 4 11 2h25l18-3 17-5 18-8 11-6h2v53l-27 9-25 5-22 2h-19l-19-2-17-4-15-6-12-7-13-11-11-14-8-16-5-15-3-16-1-10v-28l3-21 5-18 8-16 7-11 11-12 10-8 14-8 18-6zm11 44-10 2-12 6-8 8-7 14-3 12 1 5h82l7-1-1-13-4-12-6-9-9-7-12-4-7-1z" fill="#3E70B5"/>
<path transform="translate(1918,778)" d="m0 0h32l18 4 15 6 11 7 10 9 7 7 7 10 8 15 5 15 3 14 2 20v16l-2 21-5 20-7 16-7 12-11 13-12 10-17 9-17 5-16 2h-15l-16-2-15-4-16-8-13-10-7-7-11-15-8-17-5-18-3-21v-28l3-21 5-17 6-14 10-15 10-11 12-9 16-8 12-4zm13 46-12 3-9 6-8 9-6 12-4 14-2 18v14l2 18 4 15 7 13 7 8 8 5 11 3h11l10-3 8-5 7-7 6-10 5-16 2-12v-32l-4-20-8-16-9-10-10-5-9-2z" fill="#3E70B5"/>
<path transform="translate(564,720)" d="m0 0h57v63h75v44h-75l1 111 3 10 5 5 9 4 6 1 51 1v44h-66l-22-3-18-6-11-8-7-10-5-13-3-18v-118h-56v-44h56z" fill="#3E70B5"/>
<path transform="translate(1271,778)" d="m0 0h39l27 4 25 7v51l-15-8-18-7-12-3-20-2-17 1-13 4-7 6-2 4-1 7 3 8 8 6 11 5 21 6 27 7 15 6 12 7 7 6 8 11 5 11 3 14v23l-4 16-6 12-9 10-10 7-14 6-17 4-19 2h-19l-23-2-23-4-26-7-1-1v-50l20 9 16 6 17 4 14 2h18l16-3 8-4 3-1 2-4 2-5v-11l-4-8-6-5-16-6-43-11-16-6-12-7-9-8-7-10-5-13-2-12v-14l2-12 5-13 8-11 10-9 15-8 12-4z" fill="#3E70B5"/>
<path transform="translate(720,697)" d="m0 0h114l1 1 1 226 3 15 5 10 6 5 8 3 6 1 52 1v44h-75l-17-3-15-6-9-7-7-7-8-15-4-13-3-19-1-19v-173h-58v-43z" fill="#3E70B5"/>
<path transform="translate(1622,783)" d="m0 0h114v176h71v44h-200v-44h71v-131l-56-1z" fill="#3E70B5"/>
<path transform="translate(1460,931)" d="m0 0h66v72h-66z" fill="#3E70B5"/>
<path transform="translate(1679,676)" d="m0 0h57v67h-57l-1-64z" fill="#3E70B5"/>
</svg>
