<svg xmlns="http://www.w3.org/2000/svg" viewBox="0 0 770.93 403.98"><defs><style>.cls-1{fill:#007bc7;}.cls-2{fill:none;}</style></defs><g id="Layer_2" data-name="Layer 2"><g id="Layer_3" data-name="Layer 3"><path d="M77.17,145.39V261.51H58.73v-5.65a30.9,30.9,0,0,1-9.07,4.9,32.78,32.78,0,0,1-10.77,1.75q-14.41,0-23.18-10.22T7,222.14Q7,201.88,18.58,190t29-11.88c1.86,0,3.64.09,5.34.25a34.86,34.86,0,0,1,5.2.92v-32.9Zm-29.29,50q-9.77,0-15.66,6.89t-5.89,18.86q0,12.63,5.19,18.19a17.35,17.35,0,0,0,13.26,5.57,27.84,27.84,0,0,0,6.82-.75,35,35,0,0,0,6.66-2.58V196.22c-1.76-.22-3.44-.41-5-.58A51,51,0,0,0,47.88,195.39Z"/><path d="M96.7,156.68a12.4,12.4,0,0,1,2.87-8.14,9.94,9.94,0,0,1,8.13-3.49q5.28,0,8.14,3.33a12.25,12.25,0,0,1,2.87,8.3,11.89,11.89,0,0,1-2.87,7.89Q113,168,107.7,168t-8.13-3.24A11.67,11.67,0,0,1,96.7,156.68Zm20.61,22.1v82.73H98.25v-81.9Z"/><path d="M151.88,239.41a4.92,4.92,0,0,0,2.25,4.24q2.24,1.57,7.82,1.58l17.83.16q13,.18,18.91,5.4t5.89,14.71q0,11.79-9.77,20.18t-31,8.39q-16.74,0-24.87-5.73t-8.14-15.2a17.92,17.92,0,0,1,3.33-10.55,19.91,19.91,0,0,1,9.07-7.06V255a10.23,10.23,0,0,1-4.88-4.15,12.82,12.82,0,0,1-1.94-7.15,12.61,12.61,0,0,1,2.48-7.47,15.47,15.47,0,0,1,6.82-5.32v-.5a22.16,22.16,0,0,1-8.76-8.22A24.7,24.7,0,0,1,133.59,209q0-14.61,9.07-22.76t23.63-8.14a37.34,37.34,0,0,1,6.2.5,56.67,56.67,0,0,1,5.89,1.33h25.11v13.29H191.4v.5a15.31,15.31,0,0,1,4.58,5.48,19.59,19.59,0,0,1,2.09,9.47q0,13-8.53,20.1t-24.64,7.14a37.62,37.62,0,0,1-5-.33,33.71,33.71,0,0,1-4.88-1,5.21,5.21,0,0,0-2.25,2.07A5.32,5.32,0,0,0,151.88,239.41Zm-4,29.48a8.79,8.79,0,0,0,4.34,7.71q4.34,2.85,13.17,2.85,12.09,0,17.21-3t5.11-7.54a6.57,6.57,0,0,0-2.4-5.44q-2.4-1.93-7.67-2.1l-25.89-.84a10.39,10.39,0,0,0-2.86,3.61A10.72,10.72,0,0,0,147.85,268.89ZM166,222.63q7.13,0,10.93-3.82t3.8-12q0-7.14-3.57-10.88t-11-3.74a14.81,14.81,0,0,0-10.62,3.91q-4.11,3.9-4.11,11.88,0,7.47,3.8,11C157.74,221.45,161.33,222.63,166,222.63Z"/><path d="M215.89,156.68a12.45,12.45,0,0,1,2.87-8.14,10,10,0,0,1,8.14-3.49q5.26,0,8.13,3.33a12.2,12.2,0,0,1,2.87,8.3,11.84,11.84,0,0,1-2.87,7.89A10,10,0,0,1,226.9,168q-5.28,0-8.14-3.24A11.72,11.72,0,0,1,215.89,156.68Zm20.62,22.1v82.73H217.44v-81.9Z"/><path d="M251.07,194.56V179.11h9.31V164l19.06-1.66v16.78h19.38v15.45H279.44v37.09c0,4.53,1.06,7.86,3.18,10a11.11,11.11,0,0,0,8.29,3.23,30.6,30.6,0,0,0,4.73-.33,46.19,46.19,0,0,0,5-1.16v17.1a48.26,48.26,0,0,1-7.47,1.58,67.65,67.65,0,0,1-8.1.42q-11.19,0-18-7t-6.76-20.93v-40Z"/><path d="M371.35,207.68v53.83H353.68v-5.15a32.72,32.72,0,0,1-9.61,4.65,42.58,42.58,0,0,1-11.93,1.5q-11.94,0-18.21-6.4t-6.28-16.7a23.83,23.83,0,0,1,8.45-18.93q8.44-7.32,26.58-7.31c2,0,3.82,0,5.58.08s3.35.08,4.8.08v-3.65q0-6.31-3.79-9.8T336,196.39a46.39,46.39,0,0,0-10.54,1.16,68.9,68.9,0,0,0-11.16,3.82l-2.48-17.11a74.5,74.5,0,0,1,13.68-4.65,62.8,62.8,0,0,1,14-1.5q16.23,0,24,7.73T371.35,207.68ZM327,237.75a7.88,7.88,0,0,0,2.87,6.48q2.87,2.33,8,2.33a31.87,31.87,0,0,0,7.91-.92,37.31,37.31,0,0,0,7.28-2.74V227.79c-1.45-.11-3.07-.2-4.88-.25s-3.44-.09-4.88-.09q-8.69,0-12.48,2.83A8.86,8.86,0,0,0,327,237.75Z"/><path d="M410.41,145.39V261.51H391.35V146.38Z"/><path d="M456,194.56V179.11h9.3V164l19.06-1.66v16.78h19.38v15.45H484.34v37.09c0,4.53,1.06,7.86,3.18,10a11.13,11.13,0,0,0,8.29,3.23,30.51,30.51,0,0,0,4.73-.33,45.67,45.67,0,0,0,5-1.16v17.1a48.26,48.26,0,0,1-7.47,1.58,67.47,67.47,0,0,1-8.09.42q-11.2,0-18-7t-6.77-20.93v-40Z"/><path d="M562.15,179.28l-1.24,19.43a34.34,34.34,0,0,0-4.34-.91,32.47,32.47,0,0,0-4.34-.25A22.57,22.57,0,0,0,545,198.8a26.23,26.23,0,0,0-7.6,4.23v58.48H518.29v-81.9l18.91-.83v9.47a27.65,27.65,0,0,1,7.67-7.81,15.57,15.57,0,0,1,8.29-2.33,43.9,43.9,0,0,1,4.81.25A20.76,20.76,0,0,1,562.15,179.28Z"/><path d="M589.89,178.78v50q0,8.5,3,12.08t9.63,3.58a26.15,26.15,0,0,0,7-.84,46.57,46.57,0,0,0,6.7-2.49V179.61l19.07-.83v82.73H616.86v-5.65a61.32,61.32,0,0,1-9.37,5.4,24.37,24.37,0,0,1-10,1.91q-13.49,0-20.07-8.06t-6.59-22.51v-53Z"/><path d="M651.89,260.35V242.74a79.86,79.86,0,0,0,11.16,2.16,91.22,91.22,0,0,0,10.7.66q8.06,0,11.08-2.08a6.27,6.27,0,0,0,3-5.39,6.39,6.39,0,0,0-1.93-4.74c-1.3-1.27-3.9-2.52-7.83-3.74l-9.77-3.15a24.65,24.65,0,0,1-12.24-7.9q-4.33-5.38-4.34-14.2a23.64,23.64,0,0,1,8.68-18.85q8.67-7.39,24.33-7.4a100.77,100.77,0,0,1,10.16.5q4.88.49,8.75,1.16l-1.08,17.12c-3.4-.56-6.56-1-9.49-1.25s-6-.42-9.17-.42q-6.95,0-10,2c-2.06,1.33-3.09,2.93-3.09,4.82a6.61,6.61,0,0,0,1.47,4.4c1,1.16,3.32,2.3,7,3.4l9.11,2.66q10,3,14.27,8.56t4.25,13.87q0,13-8.76,20.27t-23.95,7.31q-6.35,0-12.16-.5A60.51,60.51,0,0,1,651.89,260.35Z"/><path d="M716.37,194.56V179.11h9.3V164l19.07-1.66v16.78h19.37v15.45H744.74v37.09c0,4.53,1.06,7.86,3.18,10a11.11,11.11,0,0,0,8.29,3.23,30.7,30.7,0,0,0,4.73-.33,45.56,45.56,0,0,0,5-1.16v17.1a47.78,47.78,0,0,1-7.47,1.58,67.35,67.35,0,0,1-8.09.42q-11.2,0-18-7t-6.77-20.93v-40Z"/><path class="cls-1" d="M456,323l-1,10.53q-3.57-.64-6.4-.89c-1.89-.16-4-.25-6.24-.25q-8.75,0-15.88,9.72t-7.12,32.73q0,10.2,3.8,14.58T434,393.77a38.54,38.54,0,0,0,8-.81,58.73,58.73,0,0,0,8.5-2.59v10a76,76,0,0,1-9.15,2.68,42.15,42.15,0,0,1-8.83.89q-12.48,0-18.79-6.56t-6.32-21.79q0-28,11.18-40.91t24.3-12.88q3.89,0,7,.25A48.37,48.37,0,0,1,456,323Z"/><path class="cls-1" d="M460.53,374.66q0-26.73,10.69-39.78t23-13q9.88,0,15.23,4.86t5.34,13.45q0,13.61-11.5,22.19t-31.1,8.59q0,13.29,4.21,17.9t12,4.62A38.5,38.5,0,0,0,499,392a52.44,52.44,0,0,0,10.28-4.21v10.53a45,45,0,0,1-11.17,4.37,56.85,56.85,0,0,1-13,1.3q-11.84,0-18.23-7T460.53,374.66Zm42.28-33.05q0-4.86-2.59-7.29t-7.29-2.43q-6,0-12.15,7.37T473,361.86q14.25,0,22-5.92T502.81,341.61Z"/><path class="cls-1" d="M567.61,402.52l5-52.33q1-9.72-1.38-13.44a7.23,7.23,0,0,0-6.4-3.73q-3.57,0-9.15,3.08a78.69,78.69,0,0,0-13.05,9.56l-5.18,56.86H526L533.11,324l11.5-1.46-1.13,12.15H544q7-7,12.8-9.88a25.35,25.35,0,0,1,11.34-2.92q8.42,0,13,6.08t3.24,20.49l-5.19,54.11Z"/><path class="cls-1" d="M601.31,332.54V323.3h9.23l1.62-17,11.5-1.78-1.94,18.79h16.36l-1,9.24H620.75L616.05,379q-.81,8.43,1.05,11.42a6.46,6.46,0,0,0,5.92,3,26.45,26.45,0,0,0,5.42-.49,59,59,0,0,0,5.92-1.62v10.21a40.19,40.19,0,0,1-7.05,1.94,50.25,50.25,0,0,1-7.86.49q-8.26,0-12.23-5.51t-2.67-18.63l4.86-47.3Z"/><path class="cls-1" d="M646.34,374.66q0-26.73,10.69-39.78t23-13q9.87,0,15.23,4.86t5.34,13.45q0,13.61-11.5,22.19T658,370.93q0,13.29,4.21,17.9t12,4.62A38.56,38.56,0,0,0,684.82,392a52.44,52.44,0,0,0,10.28-4.21v10.53a45,45,0,0,1-11.17,4.37,56.85,56.85,0,0,1-13,1.3q-11.84,0-18.23-7T646.34,374.66Zm42.28-33.05q0-4.86-2.59-7.29t-7.29-2.43q-6,0-12.15,7.37t-7.77,22.6q14.25,0,22-5.92T688.62,341.61Z"/><path class="cls-1" d="M753.42,323,752,334.32c-.86-.11-1.62-.19-2.26-.24s-1.46-.09-2.43-.09q-4.54,0-9.56,4.22a46.71,46.71,0,0,0-9.56,11.66l-4.54,52.65h-11.5L718.75,324l11.51-1.46L728.8,337.4h.65q5.5-9.72,9.64-12.64a15.29,15.29,0,0,1,9-2.92,15.52,15.52,0,0,1,2.83.25A7.65,7.65,0,0,1,753.42,323Z"/><path class="cls-1" d="M743.86,394.58a10.4,10.4,0,0,1,2.76-7.45,9.56,9.56,0,0,1,7.29-2.92,8.31,8.31,0,0,1,6.15,2.27,8.53,8.53,0,0,1,2.27,6.32c0,3.46-.86,6.1-2.59,7.94a9.35,9.35,0,0,1-7.13,2.75,8.64,8.64,0,0,1-6.4-2.35A8.88,8.88,0,0,1,743.86,394.58Z"/><rect class="cls-2" width="770.93" height="402.52"/></g></g></svg>