<svg width="14" height="15" viewBox="0 0 14 15" fill="none" xmlns="http://www.w3.org/2000/svg">
<path d="M7.00012 10.7325C6.87572 10.7325 6.75396 10.7084 6.63485 10.6601C6.51574 10.6118 6.40259 10.534 6.29541 10.4268L3.17901 7.31044C2.97521 7.10664 2.87331 6.87173 2.87331 6.60573C2.87331 6.33974 2.97521 6.10483 3.17901 5.90103C3.38282 5.69722 3.61689 5.59614 3.88122 5.5978C4.14557 5.59946 4.37965 5.7022 4.58345 5.90601L6.01054 7.33309V1.85482C6.01054 1.58882 6.10897 1.35739 6.30583 1.16053C6.50269 0.963665 6.73412 0.865234 7.00012 0.865234C7.26612 0.865234 7.49755 0.963665 7.69441 1.16053C7.89127 1.35739 7.9897 1.58882 7.9897 1.85482V7.33309L9.41679 5.90601C9.62059 5.7022 9.85467 5.59946 10.119 5.5978C10.3833 5.59614 10.6174 5.69722 10.8212 5.90103C11.025 6.10483 11.1269 6.33974 11.1269 6.60573C11.1269 6.87173 11.025 7.10664 10.8212 7.31044L7.70483 10.4268C7.59765 10.534 7.4845 10.6118 7.36539 10.6601C7.24628 10.7084 7.12452 10.7325 7.00012 10.7325ZM1.98381 14.9857C1.43128 14.9857 0.963285 14.794 0.579826 14.4105C0.196368 14.0271 0.00463867 13.5591 0.00463867 13.0065V11.2756C0.00463867 11.0096 0.103069 10.7781 0.299931 10.5813C0.496792 10.3844 0.728222 10.286 0.994222 10.286C1.26022 10.286 1.49165 10.3844 1.68851 10.5813C1.88537 10.7781 1.98381 11.0096 1.98381 11.2756V13.0065H12.0065V11.2756C12.0065 11.0096 12.1049 10.7781 12.3017 10.5813C12.4986 10.3844 12.73 10.286 12.9961 10.286C13.2621 10.286 13.4935 10.3844 13.6903 10.5813C13.8872 10.7781 13.9856 11.0096 13.9856 11.2756V13.0065C13.9856 13.5591 13.7939 14.0271 13.4105 14.4105C13.027 14.794 12.559 14.9857 12.0065 14.9857H1.98381Z" fill="white"/>
</svg>
